<mxfile host="65bd71144e">
    <diagram id="9EFfsClptSN-u4H9k2-F" name="Page-1">
        <mxGraphModel dx="896" dy="604" grid="1" gridSize="10" guides="1" tooltips="1" connect="1" arrows="1" fold="1" page="1" pageScale="1" pageWidth="850" pageHeight="1100" math="0" shadow="0">
            <root>
                <mxCell id="0"/>
                <mxCell id="1" parent="0"/>
                <mxCell id="2" value="Sujet" style="swimlane;fontStyle=0;childLayout=stackLayout;horizontal=1;startSize=30;horizontalStack=0;resizeParent=1;resizeParentMax=0;resizeLast=0;collapsible=1;marginBottom=0;whiteSpace=wrap;html=1;fontFamily=FiraCode Nerd Font Propo;" parent="1" vertex="1">
                    <mxGeometry x="300" y="535" width="140" height="90" as="geometry"/>
                </mxCell>
                <mxCell id="3" value="&lt;u&gt;Id&lt;/u&gt;" style="text;strokeColor=none;fillColor=none;align=left;verticalAlign=middle;spacingLeft=4;spacingRight=4;overflow=hidden;points=[[0,0.5],[1,0.5]];portConstraint=eastwest;rotatable=0;whiteSpace=wrap;html=1;fontFamily=FiraCode Nerd Font Propo;" parent="2" vertex="1">
                    <mxGeometry y="30" width="140" height="30" as="geometry"/>
                </mxCell>
                <mxCell id="4" value="Libellé" style="text;strokeColor=none;fillColor=none;align=left;verticalAlign=middle;spacingLeft=4;spacingRight=4;overflow=hidden;points=[[0,0.5],[1,0.5]];portConstraint=eastwest;rotatable=0;whiteSpace=wrap;html=1;fontFamily=FiraCode Nerd Font Propo;" parent="2" vertex="1">
                    <mxGeometry y="60" width="140" height="30" as="geometry"/>
                </mxCell>
                <mxCell id="35" style="edgeStyle=none;shape=link;html=1;exitX=0.5;exitY=1;exitDx=0;exitDy=0;entryX=0.5;entryY=0;entryDx=0;entryDy=0;fontFamily=FiraCode Nerd Font Propo;" parent="1" source="6" target="29" edge="1">
                    <mxGeometry relative="1" as="geometry"/>
                </mxCell>
                <mxCell id="48" value="1,1" style="edgeLabel;html=1;align=center;verticalAlign=middle;resizable=0;points=[];fontFamily=FiraCode Nerd Font Propo;" parent="35" vertex="1" connectable="0">
                    <mxGeometry x="-0.523" y="-4" relative="1" as="geometry">
                        <mxPoint x="4" y="19" as="offset"/>
                    </mxGeometry>
                </mxCell>
                <mxCell id="37" style="edgeStyle=none;shape=link;html=1;exitX=1;exitY=0.5;exitDx=0;exitDy=0;entryX=0;entryY=0.5;entryDx=0;entryDy=0;fontFamily=FiraCode Nerd Font Propo;" parent="1" source="6" target="28" edge="1">
                    <mxGeometry relative="1" as="geometry"/>
                </mxCell>
                <mxCell id="49" value="0,N" style="edgeLabel;html=1;align=center;verticalAlign=middle;resizable=0;points=[];fontFamily=FiraCode Nerd Font Propo;" parent="37" vertex="1" connectable="0">
                    <mxGeometry x="-0.3495" y="1" relative="1" as="geometry">
                        <mxPoint x="43" y="1" as="offset"/>
                    </mxGeometry>
                </mxCell>
                <mxCell id="6" value="Article" style="swimlane;fontStyle=0;childLayout=stackLayout;horizontal=1;startSize=30;horizontalStack=0;resizeParent=1;resizeParentMax=0;resizeLast=0;collapsible=1;marginBottom=0;whiteSpace=wrap;html=1;fontFamily=FiraCode Nerd Font Propo;" parent="1" vertex="1">
                    <mxGeometry x="20" y="385" width="140" height="90" as="geometry"/>
                </mxCell>
                <mxCell id="7" value="&lt;u&gt;Id&lt;/u&gt;" style="text;strokeColor=none;fillColor=none;align=left;verticalAlign=middle;spacingLeft=4;spacingRight=4;overflow=hidden;points=[[0,0.5],[1,0.5]];portConstraint=eastwest;rotatable=0;whiteSpace=wrap;html=1;fontFamily=FiraCode Nerd Font Propo;" parent="6" vertex="1">
                    <mxGeometry y="30" width="140" height="30" as="geometry"/>
                </mxCell>
                <mxCell id="8" value="Contenu" style="text;strokeColor=none;fillColor=none;align=left;verticalAlign=middle;spacingLeft=4;spacingRight=4;overflow=hidden;points=[[0,0.5],[1,0.5]];portConstraint=eastwest;rotatable=0;whiteSpace=wrap;html=1;fontFamily=FiraCode Nerd Font Propo;" parent="6" vertex="1">
                    <mxGeometry y="60" width="140" height="30" as="geometry"/>
                </mxCell>
                <mxCell id="10" value="Numéro" style="swimlane;fontStyle=0;childLayout=stackLayout;horizontal=1;startSize=30;horizontalStack=0;resizeParent=1;resizeParentMax=0;resizeLast=0;collapsible=1;marginBottom=0;whiteSpace=wrap;html=1;fontFamily=FiraCode Nerd Font Propo;" parent="1" vertex="1">
                    <mxGeometry x="690" y="385" width="140" height="90" as="geometry"/>
                </mxCell>
                <mxCell id="11" value="&lt;u&gt;Id&lt;/u&gt;" style="text;strokeColor=none;fillColor=none;align=left;verticalAlign=middle;spacingLeft=4;spacingRight=4;overflow=hidden;points=[[0,0.5],[1,0.5]];portConstraint=eastwest;rotatable=0;whiteSpace=wrap;html=1;fontFamily=FiraCode Nerd Font Propo;" parent="10" vertex="1">
                    <mxGeometry y="30" width="140" height="30" as="geometry"/>
                </mxCell>
                <mxCell id="12" value="Date" style="text;strokeColor=none;fillColor=none;align=left;verticalAlign=middle;spacingLeft=4;spacingRight=4;overflow=hidden;points=[[0,0.5],[1,0.5]];portConstraint=eastwest;rotatable=0;whiteSpace=wrap;html=1;fontFamily=FiraCode Nerd Font Propo;" parent="10" vertex="1">
                    <mxGeometry y="60" width="140" height="30" as="geometry"/>
                </mxCell>
                <mxCell id="14" value="Journal" style="swimlane;fontStyle=0;childLayout=stackLayout;horizontal=1;startSize=30;horizontalStack=0;resizeParent=1;resizeParentMax=0;resizeLast=0;collapsible=1;marginBottom=0;whiteSpace=wrap;html=1;fontFamily=FiraCode Nerd Font Propo;" parent="1" vertex="1">
                    <mxGeometry x="690" y="200" width="140" height="120" as="geometry"/>
                </mxCell>
                <mxCell id="15" value="&lt;u&gt;Id&lt;/u&gt;" style="text;strokeColor=none;fillColor=none;align=left;verticalAlign=middle;spacingLeft=4;spacingRight=4;overflow=hidden;points=[[0,0.5],[1,0.5]];portConstraint=eastwest;rotatable=0;whiteSpace=wrap;html=1;fontFamily=FiraCode Nerd Font Propo;" parent="14" vertex="1">
                    <mxGeometry y="30" width="140" height="30" as="geometry"/>
                </mxCell>
                <mxCell id="16" value="Titre" style="text;strokeColor=none;fillColor=none;align=left;verticalAlign=middle;spacingLeft=4;spacingRight=4;overflow=hidden;points=[[0,0.5],[1,0.5]];portConstraint=eastwest;rotatable=0;whiteSpace=wrap;html=1;fontFamily=FiraCode Nerd Font Propo;" parent="14" vertex="1">
                    <mxGeometry y="60" width="140" height="30" as="geometry"/>
                </mxCell>
                <mxCell id="17" value="Adresse" style="text;strokeColor=none;fillColor=none;align=left;verticalAlign=middle;spacingLeft=4;spacingRight=4;overflow=hidden;points=[[0,0.5],[1,0.5]];portConstraint=eastwest;rotatable=0;whiteSpace=wrap;html=1;fontFamily=FiraCode Nerd Font Propo;" parent="14" vertex="1">
                    <mxGeometry y="90" width="140" height="30" as="geometry"/>
                </mxCell>
                <mxCell id="18" value="Personnalité" style="swimlane;fontStyle=0;childLayout=stackLayout;horizontal=1;startSize=30;horizontalStack=0;resizeParent=1;resizeParentMax=0;resizeLast=0;collapsible=1;marginBottom=0;whiteSpace=wrap;html=1;fontFamily=FiraCode Nerd Font Propo;" parent="1" vertex="1">
                    <mxGeometry x="690" y="5" width="140" height="150" as="geometry"/>
                </mxCell>
                <mxCell id="19" value="&lt;u&gt;Id&lt;/u&gt;" style="text;strokeColor=none;fillColor=none;align=left;verticalAlign=middle;spacingLeft=4;spacingRight=4;overflow=hidden;points=[[0,0.5],[1,0.5]];portConstraint=eastwest;rotatable=0;whiteSpace=wrap;html=1;fontFamily=FiraCode Nerd Font Propo;" parent="18" vertex="1">
                    <mxGeometry y="30" width="140" height="30" as="geometry"/>
                </mxCell>
                <mxCell id="20" value="Nom" style="text;strokeColor=none;fillColor=none;align=left;verticalAlign=middle;spacingLeft=4;spacingRight=4;overflow=hidden;points=[[0,0.5],[1,0.5]];portConstraint=eastwest;rotatable=0;whiteSpace=wrap;html=1;fontFamily=FiraCode Nerd Font Propo;" parent="18" vertex="1">
                    <mxGeometry y="60" width="140" height="30" as="geometry"/>
                </mxCell>
                <mxCell id="21" value="Prénom" style="text;strokeColor=none;fillColor=none;align=left;verticalAlign=middle;spacingLeft=4;spacingRight=4;overflow=hidden;points=[[0,0.5],[1,0.5]];portConstraint=eastwest;rotatable=0;whiteSpace=wrap;html=1;fontFamily=FiraCode Nerd Font Propo;" parent="18" vertex="1">
                    <mxGeometry y="90" width="140" height="30" as="geometry"/>
                </mxCell>
                <mxCell id="41" value="Nationnalité" style="text;strokeColor=none;fillColor=none;align=left;verticalAlign=middle;spacingLeft=4;spacingRight=4;overflow=hidden;points=[[0,0.5],[1,0.5]];portConstraint=eastwest;rotatable=0;whiteSpace=wrap;html=1;fontFamily=FiraCode Nerd Font Propo;" parent="18" vertex="1">
                    <mxGeometry y="120" width="140" height="30" as="geometry"/>
                </mxCell>
                <mxCell id="31" style="edgeStyle=none;html=1;exitX=0.5;exitY=1;exitDx=0;exitDy=0;entryX=0.5;entryY=0;entryDx=0;entryDy=0;shape=link;fontFamily=FiraCode Nerd Font Propo;" parent="1" source="22" target="27" edge="1">
                    <mxGeometry relative="1" as="geometry"/>
                </mxCell>
                <mxCell id="46" value="1,N" style="edgeLabel;html=1;align=center;verticalAlign=middle;resizable=0;points=[];fontFamily=FiraCode Nerd Font Propo;" parent="31" vertex="1" connectable="0">
                    <mxGeometry x="-0.2874" y="1" relative="1" as="geometry">
                        <mxPoint x="-1" y="11" as="offset"/>
                    </mxGeometry>
                </mxCell>
                <mxCell id="32" style="edgeStyle=none;shape=link;html=1;exitX=1;exitY=0.5;exitDx=0;exitDy=0;entryX=0;entryY=0.5;entryDx=0;entryDy=0;fontFamily=FiraCode Nerd Font Propo;" parent="1" source="22" target="30" edge="1">
                    <mxGeometry relative="1" as="geometry">
                        <Array as="points">
                            <mxPoint x="260" y="80"/>
                        </Array>
                    </mxGeometry>
                </mxCell>
                <mxCell id="42" value="1,N" style="edgeLabel;html=1;align=center;verticalAlign=middle;resizable=0;points=[];fontFamily=FiraCode Nerd Font Propo;" parent="32" vertex="1" connectable="0">
                    <mxGeometry x="0.1676" relative="1" as="geometry">
                        <mxPoint as="offset"/>
                    </mxGeometry>
                </mxCell>
                <mxCell id="39" style="edgeStyle=none;shape=link;html=1;exitX=1;exitY=1;exitDx=0;exitDy=0;entryX=0.5;entryY=0;entryDx=0;entryDy=0;fontFamily=FiraCode Nerd Font Propo;" parent="1" source="22" target="26" edge="1">
                    <mxGeometry relative="1" as="geometry">
                        <Array as="points">
                            <mxPoint x="160" y="170"/>
                            <mxPoint x="425" y="170"/>
                        </Array>
                    </mxGeometry>
                </mxCell>
                <mxCell id="44" value="1,N" style="edgeLabel;html=1;align=center;verticalAlign=middle;resizable=0;points=[];fontFamily=FiraCode Nerd Font Propo;" parent="39" vertex="1" connectable="0">
                    <mxGeometry x="-0.3352" y="2" relative="1" as="geometry">
                        <mxPoint x="35" as="offset"/>
                    </mxGeometry>
                </mxCell>
                <mxCell id="22" value="Journaliste" style="swimlane;fontStyle=0;childLayout=stackLayout;horizontal=1;startSize=30;horizontalStack=0;resizeParent=1;resizeParentMax=0;resizeLast=0;collapsible=1;marginBottom=0;whiteSpace=wrap;html=1;fontFamily=FiraCode Nerd Font Propo;" parent="1" vertex="1">
                    <mxGeometry x="20" y="20" width="140" height="120" as="geometry"/>
                </mxCell>
                <mxCell id="23" value="&lt;u&gt;Id&lt;/u&gt;" style="text;strokeColor=none;fillColor=none;align=left;verticalAlign=middle;spacingLeft=4;spacingRight=4;overflow=hidden;points=[[0,0.5],[1,0.5]];portConstraint=eastwest;rotatable=0;whiteSpace=wrap;html=1;fontFamily=FiraCode Nerd Font Propo;" parent="22" vertex="1">
                    <mxGeometry y="30" width="140" height="30" as="geometry"/>
                </mxCell>
                <mxCell id="24" value="Nom" style="text;strokeColor=none;fillColor=none;align=left;verticalAlign=middle;spacingLeft=4;spacingRight=4;overflow=hidden;points=[[0,0.5],[1,0.5]];portConstraint=eastwest;rotatable=0;whiteSpace=wrap;html=1;fontFamily=FiraCode Nerd Font Propo;" parent="22" vertex="1">
                    <mxGeometry y="60" width="140" height="30" as="geometry"/>
                </mxCell>
                <mxCell id="25" value="Date de naissance" style="text;strokeColor=none;fillColor=none;align=left;verticalAlign=middle;spacingLeft=4;spacingRight=4;overflow=hidden;points=[[0,0.5],[1,0.5]];portConstraint=eastwest;rotatable=0;whiteSpace=wrap;html=1;fontFamily=FiraCode Nerd Font Propo;" parent="22" vertex="1">
                    <mxGeometry y="90" width="140" height="30" as="geometry"/>
                </mxCell>
                <mxCell id="40" style="edgeStyle=none;shape=link;html=1;exitX=1;exitY=0.5;exitDx=0;exitDy=0;fontFamily=FiraCode Nerd Font Propo;" parent="1" source="26" target="14" edge="1">
                    <mxGeometry relative="1" as="geometry"/>
                </mxCell>
                <mxCell id="45" value="1,N" style="edgeLabel;html=1;align=center;verticalAlign=middle;resizable=0;points=[];fontFamily=FiraCode Nerd Font Propo;" parent="40" vertex="1" connectable="0">
                    <mxGeometry x="-0.2422" y="3" relative="1" as="geometry">
                        <mxPoint x="17" y="3" as="offset"/>
                    </mxGeometry>
                </mxCell>
                <mxCell id="26" value="À travaillé pour" style="ellipse;whiteSpace=wrap;html=1;fontFamily=FiraCode Nerd Font Propo;" parent="1" vertex="1">
                    <mxGeometry x="365" y="220" width="120" height="80" as="geometry"/>
                </mxCell>
                <mxCell id="34" style="edgeStyle=none;shape=link;html=1;exitX=0.5;exitY=1;exitDx=0;exitDy=0;entryX=0.5;entryY=0;entryDx=0;entryDy=0;fontFamily=FiraCode Nerd Font Propo;" parent="1" source="27" target="6" edge="1">
                    <mxGeometry relative="1" as="geometry"/>
                </mxCell>
                <mxCell id="47" value="1,1" style="edgeLabel;html=1;align=center;verticalAlign=middle;resizable=0;points=[];fontFamily=FiraCode Nerd Font Propo;" parent="34" vertex="1" connectable="0">
                    <mxGeometry x="-0.447" y="-4" relative="1" as="geometry">
                        <mxPoint x="4" y="16" as="offset"/>
                    </mxGeometry>
                </mxCell>
                <mxCell id="27" value="Rédige" style="ellipse;whiteSpace=wrap;html=1;fontFamily=FiraCode Nerd Font Propo;" parent="1" vertex="1">
                    <mxGeometry x="30" y="220" width="120" height="80" as="geometry"/>
                </mxCell>
                <mxCell id="38" style="edgeStyle=none;shape=link;html=1;exitX=1;exitY=0.5;exitDx=0;exitDy=0;fontFamily=FiraCode Nerd Font Propo;" parent="1" source="28" target="10" edge="1">
                    <mxGeometry relative="1" as="geometry"/>
                </mxCell>
                <mxCell id="50" value="1,N" style="edgeLabel;html=1;align=center;verticalAlign=middle;resizable=0;points=[];fontFamily=FiraCode Nerd Font Propo;" parent="38" vertex="1" connectable="0">
                    <mxGeometry x="-0.1837" y="-1" relative="1" as="geometry">
                        <mxPoint x="11" y="-1" as="offset"/>
                    </mxGeometry>
                </mxCell>
                <mxCell id="28" value="Parait dans" style="ellipse;whiteSpace=wrap;html=1;fontFamily=FiraCode Nerd Font Propo;" parent="1" vertex="1">
                    <mxGeometry x="365" y="390" width="120" height="80" as="geometry"/>
                </mxCell>
                <mxCell id="36" style="edgeStyle=none;shape=link;html=1;exitX=1;exitY=0.5;exitDx=0;exitDy=0;fontFamily=FiraCode Nerd Font Propo;" parent="1" source="29" target="2" edge="1">
                    <mxGeometry relative="1" as="geometry"/>
                </mxCell>
                <mxCell id="51" value="0,N" style="edgeLabel;html=1;align=center;verticalAlign=middle;resizable=0;points=[];fontFamily=FiraCode Nerd Font Propo;" parent="36" vertex="1" connectable="0">
                    <mxGeometry x="-0.3643" y="-4" relative="1" as="geometry">
                        <mxPoint x="22" y="-4" as="offset"/>
                    </mxGeometry>
                </mxCell>
                <mxCell id="29" value="Relatif&amp;nbsp; à" style="ellipse;whiteSpace=wrap;html=1;fontFamily=FiraCode Nerd Font Propo;" parent="1" vertex="1">
                    <mxGeometry x="30" y="540" width="120" height="80" as="geometry"/>
                </mxCell>
                <mxCell id="33" style="edgeStyle=none;shape=link;html=1;exitX=1;exitY=0.5;exitDx=0;exitDy=0;fontFamily=FiraCode Nerd Font Propo;" parent="1" source="30" target="18" edge="1">
                    <mxGeometry relative="1" as="geometry"/>
                </mxCell>
                <mxCell id="43" value="1,N" style="edgeLabel;html=1;align=center;verticalAlign=middle;resizable=0;points=[];fontFamily=FiraCode Nerd Font Propo;" parent="33" vertex="1" connectable="0">
                    <mxGeometry x="-0.2129" y="-1" relative="1" as="geometry">
                        <mxPoint x="14" y="-1" as="offset"/>
                    </mxGeometry>
                </mxCell>
                <mxCell id="30" value="Interview" style="ellipse;whiteSpace=wrap;html=1;fontFamily=FiraCode Nerd Font Propo;" parent="1" vertex="1">
                    <mxGeometry x="365" y="40" width="120" height="80" as="geometry"/>
                </mxCell>
            </root>
        </mxGraphModel>
    </diagram>
</mxfile>